<?plantuml 1.2026.1?><svg xmlns="http://www.w3.org/2000/svg" xmlns:xlink="http://www.w3.org/1999/xlink" contentStyleType="text/css" data-diagram-type="SEQUENCE" height="228px" preserveAspectRatio="none" style="width:335px;height:228px;background:#FFFFFF;" version="1.1" viewBox="0 0 335 228" width="335px" zoomAndPan="magnify"><title>RenderCheck</title><defs/><g><text fill="#000000" font-family="sans-serif" font-size="14" font-weight="bold" lengthAdjust="spacing" textLength="104.0088" x="114.3589" y="27.9951">RenderCheck</text><g class="participant-lifeline" data-entity-uid="part1" data-qualified-name="ll_1" id="part1-lifeline"><g><title>SWC_A</title><rect fill="#000000" fill-opacity="0.00000" height="119.3984" width="8" x="32.541" y="73.5938"/><line style="stroke:#181818;stroke-width:0.5;stroke-dasharray:5,5;" x1="36" x2="36" y1="73.5938" y2="192.9922"/></g></g><g class="participant-lifeline" data-entity-uid="part2" data-qualified-name="ll_2" id="part2-lifeline"><g><title>SWC_B</title><rect fill="#000000" fill-opacity="0.00000" height="119.3984" width="8" x="180.2061" y="73.5938"/><line style="stroke:#181818;stroke-width:0.5;stroke-dasharray:5,5;" x1="183.6514" x2="183.6514" y1="73.5938" y2="192.9922"/></g></g><g class="participant participant-head" data-entity-uid="part1" data-qualified-name="ll_1" id="part1-head"><rect fill="#E2E2F0" height="30.2969" rx="2.5" ry="2.5" style="stroke:#181818;stroke-width:0.5;" width="63.082" x="5" y="42.2969"/><text fill="#000000" font-family="sans-serif" font-size="14" lengthAdjust="spacing" textLength="49.082" x="12" y="62.292">SWC_A</text></g><g class="participant participant-tail" data-entity-uid="part1" data-qualified-name="ll_1" id="part1-tail"><rect fill="#E2E2F0" height="30.2969" rx="2.5" ry="2.5" style="stroke:#181818;stroke-width:0.5;" width="63.082" x="5" y="191.9922"/><text fill="#000000" font-family="sans-serif" font-size="14" lengthAdjust="spacing" textLength="49.082" x="12" y="211.9873">SWC_A</text></g><g class="participant participant-head" data-entity-uid="part2" data-qualified-name="ll_2" id="part2-head"><rect fill="#E2E2F0" height="30.2969" rx="2.5" ry="2.5" style="stroke:#181818;stroke-width:0.5;" width="63.1094" x="152.6514" y="42.2969"/><text fill="#000000" font-family="sans-serif" font-size="14" lengthAdjust="spacing" textLength="49.1094" x="159.6514" y="62.292">SWC_B</text></g><g class="participant participant-tail" data-entity-uid="part2" data-qualified-name="ll_2" id="part2-tail"><rect fill="#E2E2F0" height="30.2969" rx="2.5" ry="2.5" style="stroke:#181818;stroke-width:0.5;" width="63.1094" x="152.6514" y="191.9922"/><text fill="#000000" font-family="sans-serif" font-size="14" lengthAdjust="spacing" textLength="49.1094" x="159.6514" y="211.9873">SWC_B</text></g><path d="M41,88.5938 L41,113.5938 L180,113.5938 L180,98.5938 L170,88.5938 L41,88.5938" fill="#FEFFDD" style="stroke:#181818;stroke-width:0.5;"/><path d="M170,88.5938 L170,98.5938 L180,98.5938 L170,88.5938" fill="#FEFFDD" style="stroke:#181818;stroke-width:0.5;"/><text fill="#000000" font-family="sans-serif" font-size="13" lengthAdjust="spacing" textLength="118.7266" x="47" y="105.6606">&#171;ApplicationSWC&#187;</text><path d="M189,123.7266 L189,148.7266 L328,148.7266 L328,133.7266 L318,123.7266 L189,123.7266" fill="#FEFFDD" style="stroke:#181818;stroke-width:0.5;"/><path d="M318,123.7266 L318,133.7266 L328,133.7266 L318,123.7266" fill="#FEFFDD" style="stroke:#181818;stroke-width:0.5;"/><text fill="#000000" font-family="sans-serif" font-size="13" lengthAdjust="spacing" textLength="118.7266" x="195" y="140.7935">&#171;ApplicationSWC&#187;</text><g class="message" data-entity-1="part1" data-entity-2="part2" id="msg1"><polygon fill="#181818" points="172.2061,170.9922,182.2061,174.9922,172.2061,178.9922,176.2061,174.9922" style="stroke:#181818;stroke-width:1;"/><line style="stroke:#181818;stroke-width:1;" x1="36.541" x2="178.2061" y1="174.9922" y2="174.9922"/><text fill="#000000" font-family="sans-serif" font-size="13" lengthAdjust="spacing" textLength="123.665" x="43.541" y="169.9263">Rte_Write(PP_Test)</text></g><?plantuml-src RSoz2eCm58RX_Lp5mSaE7Uee4h3UW6Z1COJqj1uQaX2_-wS_j9DTNruUA8Bm9F4gPLZ5FuWekmBrcbq4L_CosBvYjt48zaGnGRZeVGMdsoUrt7Lzpa6zWwRu-etP4-SVqUo9vYz1RvoFvdjC4BiKXTJZQ2-ouK1F?></g></svg>