<?plantuml 1.2026.1?><svg xmlns="http://www.w3.org/2000/svg" xmlns:xlink="http://www.w3.org/1999/xlink" contentStyleType="text/css" data-diagram-type="ACTIVITY" height="382px" preserveAspectRatio="none" style="width:451px;height:382px;background:#FFFFFF;" version="1.1" viewBox="0 0 451 382" width="451px" zoomAndPan="magnify"><title>Safety Monitor Cycle Time Code Flow</title><defs/><g><g class="title" data-source-line="1"><text fill="#000000" font-family="sans-serif" font-size="14" font-weight="bold" lengthAdjust="spacing" textLength="293.583" x="77.3174" y="32.9951">Safety Monitor Cycle Time Code Flow</text></g><ellipse cx="193.9131" cy="57.2969" fill="#222222" rx="10" ry="10" style="stroke:#222222;stroke-width:1;"/><rect fill="#F1F1F1" height="33.9688" rx="12.5" ry="12.5" style="stroke:#181818;stroke-width:0.5;" width="356.4453" x="15.6904" y="87.2969"/><text fill="#000000" font-family="sans-serif" font-size="12" lengthAdjust="spacing" textLength="336.4453" x="25.6904" y="108.4355">Rte_Read_SensorFusionStatusPort_StatusData(&amp;l_bSFS)</text><rect fill="#F1F1F1" height="33.9688" rx="12.5" ry="12.5" style="stroke:#181818;stroke-width:0.5;" width="365.8262" x="11" y="141.2656"/><text fill="#000000" font-family="sans-serif" font-size="12" lengthAdjust="spacing" textLength="345.8262" x="21" y="162.4043">Rte_Read_VehicleControlStatusPort_StatusData(&amp;l_bVCS)</text><rect fill="#F1F1F1" height="33.9688" rx="12.5" ry="12.5" style="stroke:#181818;stroke-width:0.5;" width="181.8418" x="102.9922" y="292.0391"/><text fill="#000000" font-family="sans-serif" font-size="12" lengthAdjust="spacing" textLength="161.8418" x="112.9922" y="313.1777">l_bEmergencyStop = TRUE</text><polygon fill="#F1F1F1" points="114.1255,243.6367,273.7007,243.6367,285.7007,255.6367,273.7007,267.6367,114.1255,267.6367,102.1255,255.6367,114.1255,243.6367" style="stroke:#181818;stroke-width:0.5;"/><text fill="#000000" font-family="sans-serif" font-size="11" lengthAdjust="spacing" textLength="97.0664" x="197.9131" y="277.8472">l_bVCS == FALSE</text><text fill="#000000" font-family="sans-serif" font-size="11" lengthAdjust="spacing" textLength="159.5752" x="114.1255" y="259.4448">Check Vehicle Control Status</text><text fill="#000000" font-family="sans-serif" font-size="11" lengthAdjust="spacing" textLength="92.5171" x="285.7007" y="253.0425">l_bVCS == TRUE</text><ellipse cx="400.2178" cy="255.6367" fill="none" rx="11" ry="11" style="stroke:#222222;stroke-width:1;"/><ellipse cx="400.2178" cy="255.6367" fill="#222222" rx="6" ry="6" style="stroke:#222222;stroke-width:1;"/><polygon fill="#F1F1F1" points="117.4771,195.2344,270.3491,195.2344,282.3491,207.2344,270.3491,219.2344,117.4771,219.2344,105.4771,207.2344,117.4771,195.2344" style="stroke:#181818;stroke-width:0.5;"/><text fill="#000000" font-family="sans-serif" font-size="11" lengthAdjust="spacing" textLength="90.6211" x="197.9131" y="229.4448">l_bSFS == TRUE</text><text fill="#000000" font-family="sans-serif" font-size="11" lengthAdjust="spacing" textLength="152.8721" x="117.4771" y="211.0425">Check Sensor Fusion Status</text><text fill="#000000" font-family="sans-serif" font-size="11" lengthAdjust="spacing" textLength="95.1704" x="282.3491" y="204.6401">l_bSFS == FALSE</text><polygon fill="#F1F1F1" points="193.9131,346.0078,205.9131,358.0078,193.9131,370.0078,181.9131,358.0078,193.9131,346.0078" style="stroke:#181818;stroke-width:0.5;"/><line style="stroke:#181818;stroke-width:1;" x1="193.9131" x2="193.9131" y1="67.2969" y2="87.2969"/><polygon fill="#181818" points="189.9131,77.2969,193.9131,87.2969,197.9131,77.2969,193.9131,81.2969" style="stroke:#181818;stroke-width:1;"/><line style="stroke:#181818;stroke-width:1;" x1="193.9131" x2="193.9131" y1="121.2656" y2="141.2656"/><polygon fill="#181818" points="189.9131,131.2656,193.9131,141.2656,197.9131,131.2656,193.9131,135.2656" style="stroke:#181818;stroke-width:1;"/><line style="stroke:#181818;stroke-width:1;" x1="193.9131" x2="193.9131" y1="267.6367" y2="292.0391"/><polygon fill="#181818" points="189.9131,282.0391,193.9131,292.0391,197.9131,282.0391,193.9131,286.0391" style="stroke:#181818;stroke-width:1;"/><line style="stroke:#181818;stroke-width:1;" x1="285.7007" x2="389.2178" y1="255.6367" y2="255.6367"/><polygon fill="#181818" points="379.2178,251.6367,389.2178,255.6367,379.2178,259.6367,383.2178,255.6367" style="stroke:#181818;stroke-width:1;"/><line style="stroke:#181818;stroke-width:1;" x1="193.9131" x2="193.9131" y1="326.0078" y2="346.0078"/><polygon fill="#181818" points="189.9131,336.0078,193.9131,346.0078,197.9131,336.0078,193.9131,340.0078" style="stroke:#181818;stroke-width:1;"/><line style="stroke:#181818;stroke-width:1;" x1="193.9131" x2="193.9131" y1="219.2344" y2="243.6367"/><polygon fill="#181818" points="189.9131,233.6367,193.9131,243.6367,197.9131,233.6367,193.9131,237.6367" style="stroke:#181818;stroke-width:1;"/><line style="stroke:#181818;stroke-width:1;" x1="282.3491" x2="425.2178" y1="207.2344" y2="207.2344"/><polygon fill="#181818" points="421.2178,287.0234,425.2178,297.0234,429.2178,287.0234,425.2178,291.0234" style="stroke:#181818;stroke-width:1;"/><line style="stroke:#181818;stroke-width:1;" x1="425.2178" x2="425.2178" y1="207.2344" y2="358.0078"/><line style="stroke:#181818;stroke-width:1;" x1="425.2178" x2="205.9131" y1="358.0078" y2="358.0078"/><polygon fill="#181818" points="215.9131,354.0078,205.9131,358.0078,215.9131,362.0078,211.9131,358.0078" style="stroke:#181818;stroke-width:1;"/><line style="stroke:#181818;stroke-width:1;" x1="193.9131" x2="193.9131" y1="175.2344" y2="195.2344"/><polygon fill="#181818" points="189.9131,185.2344,193.9131,195.2344,197.9131,185.2344,193.9131,189.2344" style="stroke:#181818;stroke-width:1;"/><?plantuml-src TP2nJiCm48RtFCLDa0oj2WWXKdMeJ0C328XB6ICdkL2Bz4pjYwgyFGwEr2B4Obd-x_k_arbpYo1LWzp3ao7DneBeA_-urZi4OMg4h3M7w1oU3uGMvBj8XwC8qCZuEE-8LDbY2h-IdxAXou_SeszGZ3MKFUmFI9VJwqdb5JQzAI6k33MwHgfynsnwcmobkE-qnHqIknJorUjacOk7oUngTX55ZfNbACqPYnnLNKWaPspMEMr8ikBElHZBHRZUALRnMLkKCfF9_8JQu5Rx5OKXjgRzdzk8WTCDn6ABrIS46mGTXE44U8i4ST30OW7h_6sLd52Z3KRTNyvhZfnZynLXw_0qofQFqcUfVrdjq7xu3-kb7uH0pIEaMZT7RDnan4Bu3G00?></g></svg>