<?plantuml 1.2026.1?><svg xmlns="http://www.w3.org/2000/svg" xmlns:xlink="http://www.w3.org/1999/xlink" contentStyleType="text/css" data-diagram-type="ACTIVITY" height="390px" preserveAspectRatio="none" style="width:423px;height:390px;background:#FFFFFF;" version="1.1" viewBox="0 0 423 390" width="423px" zoomAndPan="magnify"><title>Sensor Fusion Cycle Time Code Flow</title><defs/><g><g class="title" data-source-line="1"><text fill="#000000" font-family="sans-serif" font-size="14" font-weight="bold" lengthAdjust="spacing" textLength="287.7656" x="66.5684" y="32.9951">Sensor Fusion Cycle Time Code Flow</text></g><ellipse cx="211.9512" cy="57.2969" fill="#222222" rx="10" ry="10" style="stroke:#222222;stroke-width:1;"/><rect fill="#F1F1F1" height="33.9688" rx="12.5" ry="12.5" style="stroke:#181818;stroke-width:0.5;" width="301.8594" x="61.0215" y="87.2969"/><text fill="#000000" font-family="sans-serif" font-size="12" lengthAdjust="spacing" textLength="281.8594" x="71.0215" y="108.4355">Rte_Read_RadarPort_SensorData(&amp;l_f32Radar)</text><rect fill="#F1F1F1" height="33.9688" rx="12.5" ry="12.5" style="stroke:#181818;stroke-width:0.5;" width="324.8516" x="49.5254" y="141.2656"/><text fill="#000000" font-family="sans-serif" font-size="12" lengthAdjust="spacing" textLength="304.8516" x="59.5254" y="162.4043">Rte_Read_CameraPort_SensorData(&amp;l_f32Camera)</text><rect fill="#F1F1F1" height="33.9688" rx="12.5" ry="12.5" style="stroke:#181818;stroke-width:0.5;" width="290.5156" x="66.6934" y="195.2344"/><text fill="#000000" font-family="sans-serif" font-size="12" lengthAdjust="spacing" textLength="270.5156" x="76.6934" y="216.373">Rte_Read_LidarPort_SensorData(&amp;l_f32Lidar)</text><rect fill="#F1F1F1" height="33.9688" rx="12.5" ry="12.5" style="stroke:#181818;stroke-width:0.5;" width="336.7344" x="43.584" y="249.2031"/><text fill="#000000" font-family="sans-serif" font-size="12" lengthAdjust="spacing" textLength="316.7344" x="53.584" y="270.3418">l_f32Fused = l_f32Radar + l_f32Camera + l_f32Lidar</text><rect fill="#F1F1F1" height="33.9688" rx="12.5" ry="12.5" style="stroke:#181818;stroke-width:0.5;" width="401.9023" x="11" y="303.1719"/><text fill="#000000" font-family="sans-serif" font-size="12" lengthAdjust="spacing" textLength="381.9023" x="21" y="324.3105">Rte_Write_FusedEnvironmentModelPort_FusedData(l_f32Fused)</text><ellipse cx="211.9512" cy="368.1406" fill="none" rx="11" ry="11" style="stroke:#222222;stroke-width:1;"/><ellipse cx="211.9512" cy="368.1406" fill="#222222" rx="6" ry="6" style="stroke:#222222;stroke-width:1;"/><line style="stroke:#181818;stroke-width:1;" x1="211.9512" x2="211.9512" y1="67.2969" y2="87.2969"/><polygon fill="#181818" points="207.9512,77.2969,211.9512,87.2969,215.9512,77.2969,211.9512,81.2969" style="stroke:#181818;stroke-width:1;"/><line style="stroke:#181818;stroke-width:1;" x1="211.9512" x2="211.9512" y1="121.2656" y2="141.2656"/><polygon fill="#181818" points="207.9512,131.2656,211.9512,141.2656,215.9512,131.2656,211.9512,135.2656" style="stroke:#181818;stroke-width:1;"/><line style="stroke:#181818;stroke-width:1;" x1="211.9512" x2="211.9512" y1="175.2344" y2="195.2344"/><polygon fill="#181818" points="207.9512,185.2344,211.9512,195.2344,215.9512,185.2344,211.9512,189.2344" style="stroke:#181818;stroke-width:1;"/><line style="stroke:#181818;stroke-width:1;" x1="211.9512" x2="211.9512" y1="229.2031" y2="249.2031"/><polygon fill="#181818" points="207.9512,239.2031,211.9512,249.2031,215.9512,239.2031,211.9512,243.2031" style="stroke:#181818;stroke-width:1;"/><line style="stroke:#181818;stroke-width:1;" x1="211.9512" x2="211.9512" y1="283.1719" y2="303.1719"/><polygon fill="#181818" points="207.9512,293.1719,211.9512,303.1719,215.9512,293.1719,211.9512,297.1719" style="stroke:#181818;stroke-width:1;"/><line style="stroke:#181818;stroke-width:1;" x1="211.9512" x2="211.9512" y1="337.1406" y2="357.1406"/><polygon fill="#181818" points="207.9512,347.1406,211.9512,357.1406,215.9512,347.1406,211.9512,351.1406" style="stroke:#181818;stroke-width:1;"/><?plantuml-src TL3VIyCm47xlNt5FkY4TtKJ4ZZr8tFH1KJDXZoLjRX18BovDBVlllQQJLT2NWyltwxu44op25gbn7ZPjOno1E5Ryzc5g1E4qmiQwBhc4ruxGmtOdyduKWsQGC2fR8bLQp64CHAlUYHcFo7eLK4DvX4E7j9ZTf1K7-FosX4dbQ6yqKiKMsUnksdlYeJKUQwJGv23Nx-cz54zfDi_cIT84vKEIou25HAKBgRJoRyw7qsKFAgZ9XItsrui8JPSZib0rt_8tUy1-qP_DlzuHwibnuzRSRmNdMBY2aUlF5bMdX9qtFADoJL_6E-eBl_37s1WPaPXuZk309hZFv1i0?></g></svg>