<?plantuml 1.2026.1?><svg xmlns="http://www.w3.org/2000/svg" xmlns:xlink="http://www.w3.org/1999/xlink" contentStyleType="text/css" data-diagram-type="ACTIVITY" height="336px" preserveAspectRatio="none" style="width:621px;height:336px;background:#FFFFFF;" version="1.1" viewBox="0 0 621 336" width="621px" zoomAndPan="magnify"><title>Vehicle Control Cycle Time Code Flow</title><defs/><g><g class="title" data-source-line="1"><text fill="#000000" font-family="sans-serif" font-size="14" font-weight="bold" lengthAdjust="spacing" textLength="296.6797" x="160.7891" y="32.9951">Vehicle Control Cycle Time Code Flow</text></g><ellipse cx="310.6289" cy="57.2969" fill="#222222" rx="10" ry="10" style="stroke:#222222;stroke-width:1;"/><rect fill="#F1F1F1" height="33.9688" rx="12.5" ry="12.5" style="stroke:#181818;stroke-width:0.5;" width="409.7305" x="105.7637" y="87.2969"/><text fill="#000000" font-family="sans-serif" font-size="12" lengthAdjust="spacing" textLength="389.7305" x="115.7637" y="108.4355">Rte_Read_FusedEnvironmentModelPort_FusedData(&amp;l_f32Fused)</text><rect fill="#F1F1F1" height="33.9688" rx="12.5" ry="12.5" style="stroke:#181818;stroke-width:0.5;" width="599.2578" x="11" y="141.2656"/><text fill="#000000" font-family="sans-serif" font-size="12" lengthAdjust="spacing" textLength="579.2578" x="21" y="162.4043">l_u8Steering = l_f32Fused * STEERING_FACTOR; l_u8Throttle = l_f32Fused * THROTTLE_FACTOR</text><rect fill="#F1F1F1" height="33.9688" rx="12.5" ry="12.5" style="stroke:#181818;stroke-width:0.5;" width="334.4199" x="143.4189" y="195.2344"/><text fill="#000000" font-family="sans-serif" font-size="12" lengthAdjust="spacing" textLength="314.4199" x="153.4189" y="216.373">Rte_Write_SteeringPort_SteeringValue(l_u8Steering)</text><rect fill="#F1F1F1" height="33.9688" rx="12.5" ry="12.5" style="stroke:#181818;stroke-width:0.5;" width="324.6992" x="148.2793" y="249.2031"/><text fill="#000000" font-family="sans-serif" font-size="12" lengthAdjust="spacing" textLength="304.6992" x="158.2793" y="270.3418">Rte_Write_ThrottlePort_ThrottleValue(l_u8Throttle)</text><ellipse cx="310.6289" cy="314.1719" fill="none" rx="11" ry="11" style="stroke:#222222;stroke-width:1;"/><ellipse cx="310.6289" cy="314.1719" fill="#222222" rx="6" ry="6" style="stroke:#222222;stroke-width:1;"/><line style="stroke:#181818;stroke-width:1;" x1="310.6289" x2="310.6289" y1="67.2969" y2="87.2969"/><polygon fill="#181818" points="306.6289,77.2969,310.6289,87.2969,314.6289,77.2969,310.6289,81.2969" style="stroke:#181818;stroke-width:1;"/><line style="stroke:#181818;stroke-width:1;" x1="310.6289" x2="310.6289" y1="121.2656" y2="141.2656"/><polygon fill="#181818" points="306.6289,131.2656,310.6289,141.2656,314.6289,131.2656,310.6289,135.2656" style="stroke:#181818;stroke-width:1;"/><line style="stroke:#181818;stroke-width:1;" x1="310.6289" x2="310.6289" y1="175.2344" y2="195.2344"/><polygon fill="#181818" points="306.6289,185.2344,310.6289,195.2344,314.6289,185.2344,310.6289,189.2344" style="stroke:#181818;stroke-width:1;"/><line style="stroke:#181818;stroke-width:1;" x1="310.6289" x2="310.6289" y1="229.2031" y2="249.2031"/><polygon fill="#181818" points="306.6289,239.2031,310.6289,249.2031,314.6289,239.2031,310.6289,243.2031" style="stroke:#181818;stroke-width:1;"/><line style="stroke:#181818;stroke-width:1;" x1="310.6289" x2="310.6289" y1="283.1719" y2="303.1719"/><polygon fill="#181818" points="306.6289,293.1719,310.6289,303.1719,314.6289,293.1719,310.6289,297.1719" style="stroke:#181818;stroke-width:1;"/><?plantuml-src NL3VJy8m47xVNt5F2YOZ4sFK4H_8762Y3hi67fUo7TAajDBT9FptjeC5yUMQxxvVbv8aXR30ZIpTcnXDrYX83XvnkVMh2c6Yp3wuXcolqKA-J68_YfFhP78yQxGMAuKnN59jd4zpcYcw345OmUe0kptguU0-B5s9ZHzMq2kDNiiATUb2ei5JtwVYhf4MjwYfZe6bd-6O9RCm6aQtGL2Ji1J4ZB1WAAfYqjHOfVf7MgEzuzqbgxcnT6HU18dUbIhMTyCMzqT1h8hcCIT4A_KNFCEPX1l8UPgoruzfCHadF6CZy6A-iORyj_qJyndBE7zBE_7nhAMLRdO5xIaTM0ZLOEzlV__2r1MrfWwSJTt6cMeoty4l?></g></svg>